<svg width="167" height="138" viewBox="0 0 167 138" fill="none" xmlns="http://www.w3.org/2000/svg">
<rect width="167" height="137.158" fill="white" fill-opacity="0.01"/>
<path d="M83.6429 137.84C117.642 137.84 145.203 132.671 145.203 126.294C145.203 119.917 117.642 114.747 83.6429 114.747C49.6443 114.747 22.083 119.917 22.083 126.294C22.083 132.671 49.6443 137.84 83.6429 137.84Z" fill="#F5F5F7" fill-opacity="0.8"/>
<path fill-rule="evenodd" clip-rule="evenodd" d="M132.89 92.3722L111.166 65.534C110.124 64.2707 108.6 63.506 106.996 63.506H60.2881C58.6846 63.506 57.161 64.2707 56.1186 65.534L34.3955 92.3722V106.393H132.891V92.3722H132.89Z" fill="#AEB8C2"/>
<path fill-rule="evenodd" clip-rule="evenodd" d="M52.801 28.8668H114.484C115.448 28.8668 116.371 29.2509 117.053 29.9346C117.734 30.6183 118.116 31.5457 118.116 32.5126V117.593C118.116 118.56 117.734 119.487 117.053 120.171C116.371 120.855 115.448 121.239 114.484 121.239H52.801C51.8377 121.239 50.9139 120.855 50.2327 120.171C49.5516 119.487 49.1689 118.56 49.1689 117.593V32.5126C49.1689 31.5457 49.5516 30.6183 50.2327 29.9346C50.9139 29.2509 51.8377 28.8668 52.801 28.8668V28.8668Z" fill="#F5F5F7"/>
<path fill-rule="evenodd" clip-rule="evenodd" d="M60.8347 37.9391H106.45C106.932 37.9391 107.394 38.1311 107.734 38.473C108.075 38.8149 108.266 39.2785 108.266 39.762V62.5096C108.266 62.993 108.075 63.4567 107.734 63.7986C107.394 64.1404 106.932 64.3325 106.45 64.3325H60.8347C60.3531 64.3325 59.8911 64.1404 59.5506 63.7986C59.21 63.4567 59.0187 62.993 59.0187 62.5096V39.762C59.0187 39.2785 59.21 38.8149 59.5506 38.473C59.8911 38.1311 60.3531 37.9391 60.8347 37.9391V37.9391ZM61.0726 74.2283H106.212C106.757 74.2283 107.279 74.4456 107.664 74.8322C108.05 75.2189 108.266 75.7433 108.266 76.2901C108.266 76.8369 108.05 77.3613 107.664 77.748C107.279 78.1346 106.757 78.3518 106.212 78.3518H61.0726C60.5279 78.3518 60.0054 78.1346 59.6203 77.748C59.2351 77.3613 59.0187 76.8369 59.0187 76.2901C59.0187 75.7433 59.2351 75.2189 59.6203 74.8322C60.0054 74.4456 60.5279 74.2283 61.0726 74.2283V74.2283ZM61.0726 84.95H106.212C106.757 84.95 107.28 85.1672 107.665 85.554C108.05 85.9407 108.267 86.4652 108.267 87.0122C108.267 87.5591 108.05 88.0836 107.665 88.4704C107.28 88.8571 106.757 89.0744 106.212 89.0744H61.0726C60.5277 89.0744 60.0052 88.8571 59.6199 88.4704C59.2347 88.0836 59.0182 87.5591 59.0182 87.0122C59.0182 86.4652 59.2347 85.9407 59.6199 85.554C60.0052 85.1672 60.5277 84.95 61.0726 84.95V84.95ZM132.69 124.601C131.986 127.4 129.514 129.486 126.574 129.486H40.7106C37.7705 129.486 35.2989 127.399 34.5961 124.601C34.4621 124.067 34.3944 123.519 34.3945 122.969V92.3739H58.2914C60.9309 92.3739 63.0584 94.6052 63.0584 97.3141V97.3505C63.0584 100.058 65.2104 102.245 67.8499 102.245H99.4348C102.074 102.245 104.226 100.038 104.226 97.3296V97.3186C104.226 94.6097 106.354 92.373 108.993 92.373H132.89V122.97C132.89 123.533 132.82 124.078 132.69 124.601V124.601Z" fill="#DCE0E6"/>
<path fill-rule="evenodd" clip-rule="evenodd" d="M135.693 30.3447L129.491 32.7601C129.332 32.8223 129.158 32.838 128.991 32.8056C128.823 32.7732 128.667 32.6938 128.542 32.5767C128.417 32.4596 128.328 32.3094 128.284 32.1435C128.241 31.9777 128.244 31.8028 128.295 31.639L130.054 25.9815C127.703 23.2981 126.323 20.0259 126.323 16.4949C126.323 7.38473 135.51 0 146.844 0C158.175 0 167.363 7.38473 167.363 16.4949C167.363 25.605 158.176 32.9898 146.843 32.9898C142.732 32.9898 138.904 32.0181 135.693 30.3447Z" fill="#DCE0E6"/>
<path d="M154.928 19.473C156.356 19.473 157.515 18.3243 157.515 16.9072C157.515 15.4902 156.356 14.3415 154.928 14.3415C153.499 14.3415 152.341 15.4902 152.341 16.9072C152.341 18.3243 153.499 19.473 154.928 19.473Z" fill="white"/>
<path fill-rule="evenodd" clip-rule="evenodd" d="M141.348 19.1519H136.174L138.805 14.662L141.348 19.1519ZM144.581 14.662H149.107V19.1519H144.581V14.662Z" fill="white"/>
</svg>
